<svg width="102" height="50" viewBox="0 0 102 50" fill="none" xmlns="http://www.w3.org/2000/svg">
<path d="M5.264 18.192C4.624 18.192 3.992 18.144 3.368 18.048C2.76 17.968 2.176 17.864 1.616 17.736C1.072 17.592 0.584 17.44 0.152 17.28V15L1.832 15.048C2.504 15.352 3.112 15.552 3.656 15.648C4.216 15.744 4.808 15.792 5.432 15.792C6.072 15.792 6.616 15.688 7.064 15.48C7.528 15.256 7.888 14.944 8.144 14.544C8.4 14.128 8.528 13.648 8.528 13.104C8.528 12.592 8.408 12.184 8.168 11.88C7.928 11.56 7.608 11.304 7.208 11.112C6.824 10.904 6.392 10.728 5.912 10.584C5.448 10.44 4.968 10.288 4.472 10.128C3.784 9.888 3.128 9.592 2.504 9.24C1.896 8.888 1.4 8.416 1.016 7.824C0.648 7.232 0.464 6.456 0.464 5.496C0.464 4.536 0.688 3.68 1.136 2.928C1.6 2.176 2.248 1.584 3.08 1.152C3.928 0.719999 4.912 0.503999 6.032 0.503999C6.816 0.503999 7.64 0.607999 8.504 0.816C9.368 1.024 10.16 1.328 10.88 1.728V3.576L9.104 3.432C8.608 3.272 8.104 3.144 7.592 3.048C7.08 2.936 6.568 2.88 6.056 2.88C5.16 2.88 4.456 3.096 3.944 3.528C3.448 3.96 3.2 4.52 3.2 5.208C3.2 5.8 3.4 6.272 3.8 6.624C4.216 6.96 4.736 7.232 5.36 7.44C5.984 7.648 6.616 7.864 7.256 8.088C7.992 8.344 8.664 8.656 9.272 9.024C9.896 9.376 10.384 9.84 10.736 10.416C11.104 10.992 11.288 11.752 11.288 12.696C11.288 13.736 11.04 14.68 10.544 15.528C10.064 16.36 9.376 17.016 8.48 17.496C7.6 17.96 6.528 18.192 5.264 18.192ZM8.672 3L10.88 3.576V5.736H9.68C9.504 5.736 9.36 5.688 9.248 5.592C9.152 5.496 9.08 5.344 9.032 5.136L8.672 3ZM2.36 15.552L0.152 15V12.84H1.352C1.528 12.84 1.672 12.888 1.784 12.984C1.896 13.08 1.968 13.232 2 13.44L2.36 15.552ZM18.5045 18.168C17.4325 18.168 16.4805 17.912 15.6485 17.4C14.8325 16.872 14.1845 16.136 13.7045 15.192C13.2405 14.232 13.0085 13.112 13.0085 11.832C13.0085 10.616 13.2325 9.536 13.6805 8.592C14.1285 7.632 14.7925 6.888 15.6725 6.36C16.5525 5.816 17.6325 5.544 18.9125 5.544C19.4725 5.544 20.0805 5.624 20.7365 5.784C21.4085 5.944 22.0565 6.152 22.6805 6.408V7.992L21.2645 8.112C20.9445 7.936 20.6085 7.808 20.2565 7.728C19.9205 7.648 19.5285 7.608 19.0805 7.608C18.3285 7.608 17.7045 7.784 17.2085 8.136C16.7285 8.472 16.3685 8.96 16.1285 9.6C15.9045 10.24 15.7925 10.984 15.7925 11.832C15.7925 13.16 16.0645 14.208 16.6085 14.976C17.1685 15.744 17.9605 16.128 18.9845 16.128C19.5285 16.128 19.9845 16.032 20.3525 15.84C20.7205 15.648 21.0325 15.456 21.2885 15.264C21.5445 15.072 21.7685 14.976 21.9605 14.976C22.0565 14.976 22.1445 15 22.2245 15.048C22.3205 15.08 22.4005 15.136 22.4645 15.216L23.2325 16.2C22.6085 16.92 21.8805 17.432 21.0485 17.736C20.2325 18.024 19.3845 18.168 18.5045 18.168ZM20.7845 7.56L22.6805 7.992V9.864H21.6965C21.5045 9.864 21.3525 9.816 21.2405 9.72C21.1445 9.608 21.0805 9.464 21.0485 9.288L20.7845 7.56ZM26.174 18V5.736H27.758C28.046 5.736 28.246 5.792 28.358 5.904C28.47 6 28.542 6.176 28.574 6.432L28.742 8.064C29.174 7.264 29.686 6.64 30.278 6.192C30.87 5.728 31.55 5.496 32.318 5.496C32.638 5.496 32.926 5.536 33.182 5.616C33.454 5.696 33.686 5.8 33.878 5.928L33.542 7.944C33.51 8.072 33.454 8.16 33.374 8.208C33.294 8.256 33.198 8.28 33.086 8.28C32.99 8.28 32.79 8.256 32.486 8.208C32.198 8.144 31.942 8.112 31.718 8.112C31.062 8.112 30.502 8.304 30.038 8.688C29.574 9.056 29.19 9.592 28.886 10.296V18H26.174ZM28.262 18L28.55 15.792L30.062 16.104C30.254 16.136 30.398 16.208 30.494 16.32C30.606 16.416 30.662 16.56 30.662 16.752V18H28.262ZM24.398 18V16.752C24.398 16.56 24.446 16.416 24.542 16.32C24.654 16.208 24.806 16.136 24.998 16.104L26.51 15.792L26.798 18H24.398ZM26.798 5.736L26.51 7.944L24.998 7.632C24.806 7.584 24.654 7.512 24.542 7.416C24.446 7.304 24.398 7.152 24.398 6.96V5.736H26.798ZM36.5334 18V5.736H39.2454V18H36.5334ZM34.7574 18V16.752C34.7574 16.56 34.8054 16.416 34.9014 16.32C35.0134 16.208 35.1654 16.136 35.3574 16.104L36.8694 15.792L37.1574 18H34.7574ZM38.6214 18L38.9094 15.792L40.4214 16.104C40.6134 16.136 40.7574 16.208 40.8534 16.32C40.9654 16.416 41.0214 16.56 41.0214 16.752V18H38.6214ZM37.1574 5.736L36.8694 7.944L35.3574 7.632C35.1654 7.584 35.0134 7.512 34.9014 7.416C34.8054 7.304 34.7574 7.152 34.7574 6.96V5.736H37.1574ZM37.9014 3.816C37.4214 3.816 37.0054 3.64 36.6534 3.288C36.3014 2.936 36.1254 2.528 36.1254 2.064C36.1254 1.568 36.3014 1.152 36.6534 0.816C37.0214 0.463999 37.4374 0.287999 37.9014 0.287999C38.3814 0.287999 38.7974 0.463999 39.1494 0.816C39.5174 1.152 39.7014 1.568 39.7014 2.064C39.7014 2.528 39.5174 2.936 39.1494 3.288C38.7974 3.64 38.3814 3.816 37.9014 3.816ZM43.799 22.056V5.736H45.455C45.823 5.736 46.055 5.904 46.151 6.24L46.367 7.488C46.879 6.896 47.463 6.416 48.119 6.048C48.775 5.68 49.527 5.496 50.375 5.496C51.351 5.496 52.175 5.76 52.847 6.288C53.535 6.816 54.055 7.552 54.407 8.496C54.759 9.424 54.935 10.512 54.935 11.76C54.935 12.96 54.719 14.048 54.287 15.024C53.871 15.984 53.271 16.752 52.487 17.328C51.703 17.888 50.759 18.168 49.655 18.168C48.951 18.168 48.351 18.056 47.855 17.832C47.359 17.608 46.911 17.288 46.511 16.872V22.056H43.799ZM49.031 16.128C49.719 16.128 50.287 15.96 50.735 15.624C51.199 15.288 51.551 14.8 51.791 14.16C52.031 13.504 52.151 12.704 52.151 11.76C52.151 10.416 51.927 9.392 51.479 8.688C51.047 7.984 50.375 7.632 49.463 7.632C48.807 7.632 48.247 7.768 47.783 8.04C47.335 8.312 46.911 8.712 46.511 9.24V14.904C46.863 15.352 47.247 15.672 47.663 15.864C48.079 16.04 48.535 16.128 49.031 16.128ZM44.423 5.736L44.135 7.944L42.623 7.632C42.431 7.584 42.279 7.512 42.167 7.416C42.071 7.304 42.023 7.152 42.023 6.96V5.736H44.423ZM42.023 22.056V20.832C42.023 20.64 42.071 20.488 42.167 20.376C42.279 20.28 42.431 20.216 42.623 20.184L44.135 19.848L44.423 22.056H42.023ZM45.887 22.056L46.175 19.848L47.687 20.184C47.879 20.216 48.023 20.28 48.119 20.376C48.231 20.488 48.287 20.64 48.287 20.832V22.056H45.887ZM61.001 18.192C59.961 18.192 59.161 17.904 58.601 17.328C58.041 16.752 57.761 15.936 57.761 14.88V7.8H56.441C56.297 7.8 56.169 7.752 56.057 7.656C55.961 7.56 55.913 7.424 55.913 7.248V6.168L57.905 5.856L58.481 2.376C58.529 2.072 58.729 1.92 59.081 1.92H60.473V5.88H63.785V7.8H60.473V14.712C60.473 15.144 60.577 15.472 60.785 15.696C60.993 15.92 61.273 16.032 61.625 16.032C61.801 16.032 61.969 15.992 62.129 15.912C62.305 15.832 62.465 15.752 62.609 15.672C62.753 15.592 62.873 15.552 62.969 15.552C63.097 15.552 63.209 15.632 63.305 15.792L64.121 17.088C63.721 17.44 63.241 17.712 62.681 17.904C62.137 18.096 61.577 18.192 61.001 18.192ZM67.049 18V5.736H69.761V18H67.049ZM65.273 18V16.752C65.273 16.56 65.321 16.416 65.417 16.32C65.529 16.208 65.681 16.136 65.873 16.104L67.385 15.792L67.673 18H65.273ZM69.137 18L69.425 15.792L70.937 16.104C71.129 16.136 71.273 16.208 71.369 16.32C71.481 16.416 71.537 16.56 71.537 16.752V18H69.137ZM67.673 5.736L67.385 7.944L65.873 7.632C65.681 7.584 65.529 7.512 65.417 7.416C65.321 7.304 65.273 7.152 65.273 6.96V5.736H67.673ZM68.417 3.816C67.937 3.816 67.521 3.64 67.169 3.288C66.817 2.936 66.641 2.528 66.641 2.064C66.641 1.568 66.817 1.152 67.169 0.816C67.537 0.463999 67.953 0.287999 68.417 0.287999C68.897 0.287999 69.313 0.463999 69.665 0.816C70.033 1.152 70.217 1.568 70.217 2.064C70.217 2.528 70.033 2.936 69.665 3.288C69.313 3.64 68.897 3.816 68.417 3.816ZM74.3146 18V5.736H75.9706C76.3386 5.736 76.5706 5.904 76.6666 6.24L76.8346 7.344C77.3626 6.8 77.9386 6.368 78.5626 6.048C79.1866 5.712 79.9066 5.544 80.7226 5.544C81.6346 5.544 82.3946 5.744 83.0026 6.144C83.6106 6.528 84.0666 7.072 84.3706 7.776C84.6906 8.464 84.8506 9.264 84.8506 10.176V18H82.1626V10.176C82.1626 9.376 81.9706 8.752 81.5866 8.304C81.2186 7.856 80.6586 7.632 79.9066 7.632C79.3626 7.632 78.8506 7.76 78.3706 8.016C77.8906 8.272 77.4426 8.624 77.0266 9.072V18H74.3146ZM72.5386 18V16.752C72.5386 16.56 72.5866 16.416 72.6826 16.32C72.7946 16.208 72.9466 16.136 73.1386 16.104L74.6506 15.792L74.9386 18H72.5386ZM76.4026 18L76.6906 15.792L78.2026 16.104C78.3946 16.136 78.5386 16.208 78.6346 16.32C78.7466 16.416 78.8026 16.56 78.8026 16.752V18H76.4026ZM84.2266 18L84.5146 15.792L86.0506 16.104C86.2426 16.136 86.3866 16.208 86.4826 16.32C86.5786 16.416 86.6266 16.56 86.6266 16.752V18H84.2266ZM74.9386 5.736L74.6506 7.944L73.1386 7.632C72.9466 7.584 72.7946 7.512 72.6826 7.416C72.5866 7.304 72.5386 7.152 72.5386 6.96V5.736H74.9386ZM92.6238 5.52C93.1518 5.52 93.6478 5.576 94.1118 5.688C94.5758 5.8 94.9998 5.96 95.3838 6.168H98.8398V7.176C98.8398 7.336 98.7918 7.464 98.6958 7.56C98.6158 7.656 98.4638 7.728 98.2398 7.776L97.0398 7.968C97.2478 8.432 97.3518 8.936 97.3518 9.48C97.3518 10.296 97.1438 11 96.7278 11.592C96.3118 12.184 95.7438 12.64 95.0238 12.96C94.3198 13.28 93.5198 13.44 92.6238 13.44C92.3678 13.44 92.1198 13.432 91.8798 13.416C91.6558 13.384 91.4318 13.344 91.2078 13.296C90.9998 13.424 90.8398 13.568 90.7278 13.728C90.6158 13.872 90.5598 14.024 90.5598 14.184C90.5598 14.44 90.6798 14.632 90.9198 14.76C91.1758 14.888 91.5038 14.976 91.9038 15.024C92.3038 15.072 92.7358 15.104 93.1998 15.12C93.6798 15.136 94.1278 15.16 94.5438 15.192C95.2798 15.256 95.9438 15.376 96.5358 15.552C97.1438 15.728 97.6318 16.016 97.9998 16.416C98.3678 16.816 98.5518 17.392 98.5518 18.144C98.5518 18.928 98.2958 19.64 97.7838 20.28C97.2718 20.92 96.5758 21.424 95.6958 21.792C94.8158 22.176 93.8078 22.368 92.6718 22.368C91.5838 22.368 90.6318 22.232 89.8158 21.96C88.9998 21.688 88.3598 21.304 87.8958 20.808C87.4478 20.328 87.2238 19.768 87.2238 19.128C87.2238 18.536 87.4078 18.04 87.7758 17.64C88.1438 17.224 88.6478 16.896 89.2878 16.656C88.9678 16.496 88.7038 16.28 88.4958 16.008C88.3038 15.72 88.2078 15.352 88.2078 14.904C88.2078 14.52 88.3518 14.136 88.6398 13.752C88.9278 13.368 89.3198 13.048 89.8158 12.792C89.1918 12.456 88.7038 12.008 88.3518 11.448C87.9998 10.888 87.8238 10.232 87.8238 9.48C87.8238 8.664 88.0318 7.96 88.4478 7.368C88.8798 6.776 89.4558 6.32 90.1758 6C90.9118 5.68 91.7278 5.52 92.6238 5.52ZM96.0558 18.6C96.0558 18.184 95.8798 17.888 95.5278 17.712C95.1918 17.536 94.7838 17.424 94.3038 17.376C94.1438 17.344 93.9118 17.32 93.6078 17.304C93.3198 17.288 92.9998 17.272 92.6478 17.256C92.2958 17.24 91.9598 17.216 91.6398 17.184C91.3198 17.152 91.0558 17.12 90.8478 17.088C90.4798 17.296 90.1758 17.536 89.9358 17.808C89.6958 18.08 89.5758 18.4 89.5758 18.768C89.5758 19.12 89.7038 19.424 89.9598 19.68C90.2158 19.936 90.5758 20.12 91.0398 20.232C91.5198 20.36 92.0798 20.424 92.7198 20.424C93.3918 20.424 93.9758 20.352 94.4718 20.208C94.9678 20.08 95.3518 19.88 95.6238 19.608C95.9118 19.336 96.0558 19 96.0558 18.6ZM92.6238 11.712C93.3918 11.712 93.9678 11.512 94.3518 11.112C94.7518 10.712 94.9518 10.192 94.9518 9.552C94.9518 8.896 94.7598 8.376 94.3758 7.992C93.9918 7.608 93.4078 7.416 92.6238 7.416C91.8558 7.416 91.2798 7.608 90.8958 7.992C90.5118 8.376 90.3198 8.896 90.3198 9.552C90.3198 10.192 90.5198 10.712 90.9198 11.112C91.3198 11.512 91.8878 11.712 92.6238 11.712ZM0.994318 34.3153L1.22443 32.9091H11.0426L10.8125 34.3153H6.69602L4.75284 46H3.16761L5.1108 34.3153H0.994318ZM13.5914 40.0938L12.6199 46H11.1113L13.2846 32.9091H14.7931L14.0005 37.7159H14.1284C14.4352 37.2045 14.8443 36.7997 15.3556 36.5014C15.8713 36.2031 16.519 36.054 17.2988 36.054C17.9636 36.054 18.524 36.1882 18.9799 36.4567C19.4402 36.7209 19.764 37.1278 19.9515 37.6776C20.1433 38.223 20.171 38.9176 20.0346 39.7614L18.9863 46H17.4778L18.5005 39.8636C18.6284 39.0838 18.524 38.4808 18.1873 38.0547C17.8549 37.6243 17.3372 37.4091 16.6341 37.4091C16.1397 37.4091 15.6795 37.5135 15.2534 37.7223C14.8315 37.9311 14.4735 38.2358 14.1795 38.6364C13.8897 39.0369 13.6937 39.5227 13.5914 40.0938ZM25.7987 46.2045C24.8952 46.2045 24.1388 45.9893 23.5295 45.5589C22.9201 45.1286 22.4897 44.5256 22.2383 43.75C21.9911 42.9744 21.9506 42.071 22.1168 41.0398C22.2788 40.0341 22.6005 39.1584 23.082 38.4126C23.5678 37.6626 24.1708 37.0831 24.891 36.674C25.6154 36.2607 26.4123 36.054 27.2816 36.054C28.185 36.054 28.9393 36.2713 29.5444 36.706C30.1538 37.1364 30.5842 37.7415 30.8356 38.5213C31.087 39.2969 31.1296 40.2045 30.9634 41.2443C30.8015 42.2415 30.4755 43.1129 29.9854 43.8587C29.4996 44.6001 28.8967 45.1776 28.1765 45.5909C27.4606 46 26.668 46.2045 25.7987 46.2045ZM25.8242 44.8494C26.5146 44.8494 27.1133 44.6726 27.6204 44.3189C28.1317 43.9652 28.5451 43.4986 28.8604 42.919C29.18 42.3395 29.3952 41.7131 29.506 41.0398C29.6083 40.4006 29.604 39.8061 29.4933 39.2564C29.3825 38.7024 29.146 38.2571 28.7837 37.9205C28.4215 37.5795 27.9123 37.4091 27.256 37.4091C26.5657 37.4091 25.9627 37.5881 25.4471 37.946C24.9357 38.304 24.5224 38.7749 24.207 39.3587C23.8917 39.9425 23.6808 40.571 23.5742 41.2443C23.4719 41.8835 23.4741 42.478 23.5806 43.0277C23.6914 43.5732 23.9279 44.0142 24.2901 44.3509C24.6566 44.6832 25.168 44.8494 25.8242 44.8494ZM39.3386 41.9858L40.3102 36.1818H41.8187L40.1824 46H38.6738L38.9551 44.3381H38.8528C38.546 44.8366 38.1177 45.2607 37.568 45.6101C37.0183 45.9553 36.3727 46.1278 35.6312 46.1278C35.0176 46.1278 34.4934 45.9936 34.0588 45.7251C33.6284 45.4524 33.3216 45.0433 33.1383 44.4979C32.9593 43.9482 32.938 43.2557 33.0744 42.4205L34.1227 36.1818H35.6312L34.6085 42.3182C34.4934 43.0341 34.6021 43.6051 34.9345 44.0312C35.2669 44.4574 35.7463 44.6705 36.3727 44.6705C36.7477 44.6705 37.144 44.5746 37.5616 44.3828C37.9835 44.1911 38.3585 43.897 38.6866 43.5007C39.019 43.1044 39.2363 42.5994 39.3386 41.9858ZM46.2947 49.8864C45.5618 49.8864 44.9482 49.7926 44.4538 49.6051C43.9595 49.4219 43.5632 49.179 43.2649 48.8764C42.9666 48.5781 42.7408 48.2585 42.5874 47.9176L43.9425 47.0739C44.0447 47.2528 44.1768 47.4574 44.3388 47.6875C44.5007 47.9219 44.7457 48.1243 45.0739 48.2947C45.4062 48.4695 45.8729 48.5568 46.4737 48.5568C47.2621 48.5568 47.9524 48.3651 48.5447 47.9815C49.1371 47.598 49.5036 46.9972 49.6442 46.179L49.951 44.1847H49.8232C49.6868 44.3636 49.4972 44.5852 49.2543 44.8494C49.0114 45.1094 48.6854 45.3416 48.2763 45.5462C47.8672 45.7464 47.343 45.8466 46.7038 45.8466C45.907 45.8466 45.2251 45.6591 44.6584 45.2841C44.0916 44.9091 43.6847 44.3636 43.4375 43.6477C43.1946 42.9318 43.1584 42.0625 43.3288 41.0398C43.495 40.0341 43.8146 39.1584 44.2876 38.4126C44.7649 37.6626 45.353 37.0831 46.0518 36.674C46.7507 36.2607 47.5135 36.054 48.3402 36.054C48.9794 36.054 49.4695 36.1605 49.8104 36.3736C50.1555 36.5824 50.407 36.821 50.5646 37.0895C50.7223 37.3537 50.8416 37.571 50.9226 37.7415H51.076L51.3317 36.1818H52.7891L51.1271 46.2812C50.9865 47.125 50.6818 47.8111 50.2131 48.3395C49.7443 48.8722 49.169 49.2621 48.4872 49.5092C47.8054 49.7607 47.0746 49.8864 46.2947 49.8864ZM47.0874 44.4915C47.6882 44.4915 48.223 44.353 48.6918 44.076C49.1648 43.799 49.5568 43.4006 49.8679 42.8807C50.179 42.3608 50.3942 41.7386 50.5135 41.0142C50.6328 40.3068 50.6243 39.6825 50.4879 39.1413C50.3516 38.6001 50.0938 38.1761 49.7145 37.8693C49.3395 37.5625 48.8473 37.4091 48.2379 37.4091C47.5945 37.4091 47.0384 37.571 46.5696 37.8949C46.1051 38.2187 45.728 38.6534 45.4382 39.1989C45.1484 39.7443 44.9482 40.3494 44.8374 41.0142C44.7266 41.696 44.7308 42.299 44.8501 42.8232C44.9695 43.343 45.2124 43.7521 45.5788 44.0504C45.9496 44.3445 46.4524 44.4915 47.0874 44.4915ZM56.3942 40.0938L55.4226 46H53.9141L56.0874 32.9091H57.5959L56.8033 37.7159H56.9311C57.2379 37.2045 57.647 36.7997 58.1584 36.5014C58.674 36.2031 59.3217 36.054 60.1016 36.054C60.7663 36.054 61.3267 36.1882 61.7827 36.4567C62.2429 36.7209 62.5668 37.1278 62.7543 37.6776C62.946 38.223 62.9737 38.9176 62.8374 39.7614L61.7891 46H60.2805L61.3033 39.8636C61.4311 39.0838 61.3267 38.4808 60.9901 38.0547C60.6577 37.6243 60.1399 37.4091 59.4368 37.4091C58.9425 37.4091 58.4822 37.5135 58.0561 37.7223C57.6342 37.9311 57.2763 38.2358 56.9822 38.6364C56.6925 39.0369 56.4964 39.5227 56.3942 40.0938ZM70.4551 36.1818L70.2505 37.4602H65.1625L65.367 36.1818H70.4551ZM67.2335 33.8295H68.742L67.1824 43.1875C67.1142 43.6136 67.1248 43.9332 67.2143 44.1463C67.3081 44.3551 67.4487 44.4957 67.6362 44.5682C67.8279 44.6364 68.0346 44.6705 68.2562 44.6705C68.4224 44.6705 68.5588 44.6619 68.6653 44.6449C68.7718 44.6236 68.8571 44.6065 68.921 44.5938L69.0233 45.9489C68.9082 45.9872 68.7527 46.0256 68.5566 46.0639C68.3649 46.1065 68.1284 46.1278 67.8471 46.1278C67.421 46.1278 67.0204 46.0362 66.6454 45.853C66.2704 45.6697 65.9828 45.3906 65.7825 45.0156C65.5822 44.6406 65.5289 44.1676 65.6227 43.5966L67.2335 33.8295ZM79.1451 38.3807L77.7132 38.7642C77.6621 38.5341 77.5726 38.3125 77.4448 38.0994C77.3212 37.8821 77.1294 37.7053 76.8695 37.5689C76.6138 37.4283 76.2644 37.358 75.8212 37.358C75.2203 37.358 74.6983 37.4964 74.2551 37.7734C73.812 38.0462 73.5584 38.3935 73.4945 38.8153C73.4306 39.1861 73.5158 39.4822 73.7502 39.7038C73.9846 39.9254 74.3766 40.1065 74.9263 40.2472L76.3326 40.6051C77.1763 40.8224 77.7772 41.1484 78.1351 41.5831C78.4973 42.0135 78.6209 42.5739 78.5059 43.2642C78.4121 43.8267 78.1671 44.3295 77.7708 44.7727C77.3745 45.2159 76.8674 45.5653 76.2495 45.821C75.6316 46.0767 74.9434 46.2045 74.1848 46.2045C73.1749 46.2045 72.378 45.9872 71.7942 45.5526C71.2104 45.1136 70.8993 44.4787 70.861 43.6477L72.3695 43.2898C72.4078 43.8139 72.5953 44.2102 72.932 44.4787C73.2729 44.7429 73.7502 44.875 74.3638 44.875C75.0669 44.875 75.6529 44.7259 76.1216 44.4276C76.5904 44.125 76.8567 43.7628 76.9206 43.3409C76.9846 42.9957 76.9164 42.7081 76.7161 42.478C76.5201 42.2479 76.1792 42.0753 75.6934 41.9602L74.1337 41.5767C73.2644 41.3594 72.655 41.027 72.3056 40.5795C71.9604 40.1321 71.8453 39.5696 71.9604 38.892C72.0542 38.3381 72.2928 37.848 72.6763 37.4219C73.0641 36.9957 73.5499 36.6612 74.1337 36.4183C74.7218 36.1754 75.361 36.054 76.0513 36.054C77.0229 36.054 77.7495 36.267 78.231 36.6932C78.7125 37.1151 79.0172 37.6776 79.1451 38.3807ZM92.2823 32.2955L85.4812 47.9688H84.1005L90.9016 32.2955H92.2823ZM101.536 41.3977L92.6131 45.5909L92.8944 43.9545L99.6955 40.9119L99.6444 41.0142L99.6699 40.7585L99.7211 40.8608L93.9171 37.8182L94.1728 36.1818L101.715 40.375L101.536 41.3977Z" fill="#2C2C2C"/>
</svg>
